<svg width="32" height="32" viewBox="0 0 32 32" fill="none" xmlns="http://www.w3.org/2000/svg">
<path d="M15.4217 16.0036H7.46059M7.23493 17.1418L5.91964 21.4267C5.19926 23.7735 4.83907 24.9469 5.09756 25.6694C5.32203 26.297 5.80414 26.7727 6.39904 26.9538C7.08409 27.1623 8.11877 26.6545 10.1881 25.639L23.4547 19.1282C25.4746 18.1368 26.4845 17.6413 26.7966 16.9527C27.0678 16.3545 27.0678 15.6526 26.7966 15.0544C26.4845 14.366 25.4746 13.8703 23.4547 12.879L10.1653 6.35705C8.10212 5.34455 7.07057 4.83829 6.3862 5.04597C5.79186 5.22632 5.3098 5.7008 5.08455 6.32716C4.82517 7.04839 5.18151 8.21925 5.8942 10.561L7.23748 14.9747C7.35988 15.3769 7.42109 15.5781 7.44525 15.7836C7.46669 15.9662 7.46646 16.151 7.4446 16.3334C7.41995 16.539 7.35828 16.7399 7.23493 17.1418Z" stroke="white" stroke-width="3" stroke-linecap="round" stroke-linejoin="round"/>
</svg>
